<svg width="206" height="223" viewBox="0 0 206 223" xmlns="http://www.w3.org/2000/svg" xmlns:xlink="http://www.w3.org/1999/xlink"><title>pair</title><desc>Created using Figma</desc><use xlink:href="#a" transform="rotate(-23.117 277.469 -88.06)"/><use xlink:href="#b" transform="rotate(-23.117 143.837 28.175)"/><defs><path id="a" d="M92.269 131.708H39.42c-2.464 0-4.38-1.917-4.38-4.381 0-6.846-3.286-10.679-8.215-16.703-2.739-3.286-5.75-7.12-8.763-11.775C9.85 85.432 2.456 70.1.813 64.074-.83 58.05.265 54.49 1.908 52.3c1.917-2.738 5.203-4.107 9.036-4.107 5.203 0 10.68 4.38 15.334 10.13v-45.18C26.278 5.75 32.302 0 39.422 0c7.119 0 13.143 6.024 13.143 13.143V31.49c1.369-.547 2.738-.821 4.381-.821 4.655 0 8.762 2.464 11.227 6.024 1.916-1.095 4.107-1.643 6.571-1.643 6.024 0 11.227 4.107 12.596 9.584 1.37-.548 3.012-.822 4.929-.822 7.393 0 13.143 6.024 13.143 13.144v13.143c0 11.227-2.19 20.537-4.381 29.299-2.19 9.036-4.381 17.251-4.381 27.656 0 2.464-1.917 4.655-4.381 4.655zm-48.466-8.763h44.359c.547-9.583 2.464-17.524 4.38-25.465 2.191-8.762 4.108-17.25 4.108-27.382V56.133c0-2.464-1.917-4.38-4.381-4.38-2.465 0-4.381 1.916-4.381 4.38v5.203c0 2.464-1.917 4.381-4.381 4.381-2.465 0-4.382-1.917-4.382-4.381V47.37c0-2.464-1.916-4.381-4.38-4.381-2.465 0-4.382 1.917-4.382 4.381v9.584c0 2.464-1.917 4.38-4.38 4.38-2.465 0-4.382-1.916-4.382-4.38V42.99c0-2.465-1.917-4.381-4.381-4.381-2.465 0-4.381 1.916-4.381 4.38v9.585c0 2.464-1.917 4.38-4.381 4.38-2.465 0-4.382-1.916-4.382-4.38V12.048c0-2.464-1.916-4.381-4.38-4.381-2.465 0-4.382 1.917-4.382 4.381V78.86c0 2.465-1.917 4.382-4.381 4.382-2.464 0-4.381-1.917-4.381-4.382V75.3c-3.834-10.13-12.596-18.893-15.334-18.893-1.095 0-1.643.274-1.917 1.095-.274.548-.547 1.917 0 3.834 1.37 4.655 8.215 18.894 16.703 32.858 2.738 4.381 5.477 7.667 8.215 10.953 4.381 5.477 8.215 10.405 9.584 17.798z"/><path id="b" fill-rule="evenodd" d="M126.713 36.52L63.841 9.68c-10.575-4.515-22.807.398-27.322 10.973L9.68 83.525c-4.514 10.575.399 22.807 10.974 27.321l23.242 9.923c-.026.64.046 1.439.311 2.366.473 1.607 1.597 4.354 3.216 7.838l-29.91-12.769c-14.639-6.249-21.44-23.182-15.19-37.82l26.84-62.872c6.249-14.639 23.181-21.44 37.82-15.19l62.872 26.84c14.638 6.249 21.439 23.181 15.19 37.82l-20.142 47.182c-1.275.756-2.109 2.143-2.109 3.769v1.171l-3.56 8.34c-.265.048-.54.073-.821.073-2.465 0-4.381-1.917-4.381-4.382v-3.881l23.655-55.413c4.515-10.575-.398-22.807-10.973-27.322zM78.982 98.023c7.605-1.663 14.32-6.856 17.61-14.561 5.401-12.653-.477-27.288-13.13-32.69-12.652-5.4-27.287.478-32.688 13.13-5.401 12.652.477 27.288 13.129 32.689a24.936 24.936 0 0 0 6.316 1.764v-4.048a20.96 20.96 0 0 1-4.746-1.395c-10.62-4.534-15.554-16.819-11.02-27.44 4.533-10.62 16.819-15.554 27.439-11.02 10.62 4.533 15.555 16.819 11.02 27.44-2.637 6.178-7.9 10.433-13.93 12.017v4.114zm-8.763 33.982v8.699l-8.824-3.767c-1.655-4.309-4.194-8.362-6.77-11.589l15.594 6.657zm-3.444-97.252a3.5 3.5 0 1 0 2.748-6.438 3.5 3.5 0 0 0-2.748 6.438zm24.493 6.65a3.5 3.5 0 1 1-6.438-2.748 3.5 3.5 0 0 1 6.438 2.748zm15.307 10.34a3.5 3.5 0 1 0 2.748-6.438 3.5 3.5 0 0 0-2.748 6.438z"/></defs></svg>